{
    "accessors": [
        {
            "bufferView": 0,
            "byteOffset": 0,
            "componentType": 5123,
            "count": 2628,
            "type": "SCALAR",
            "max": [2215],
            "min": [0]
        },
        {
            "bufferView": 1,
            "byteOffset": 0,
            "componentType": 5126,
            "count": 2216,
            "type": "VEC3",
            "max": [293.98284912109375, 979.5947875976562, 241.23728942871094],
            "min": [-233.5462646484375, -106.58224487304688, -285.11273193359375],
            "name": "POSITION"
        },
        {
            "bufferView": 1,
            "byteOffset": 12,
            "componentType": 5126,
            "count": 2216,
            "type": "VEC3",
            "max": [0.9977967143058777, 0.9734271168708801, 0.9876986742019653],
            "min": [-0.9880724549293518, -0.9983268976211548, -0.991766631603241],
            "name": "NORMAL"
        },
        {
            "bufferView": 1,
            "byteOffset": 24,
            "componentType": 5126,
            "count": 2216,
            "type": "VEC2",
            "max": [0.2308914065361023, 0.9842208027839661],
            "min": [0.020373333245515823, 0.07861438393592834],
            "name": "TEXCOORD_0"
        }
    ],
    "asset": { "generator": "Aspose.3D 23.2", "version": "2.0" },
    "buffers": [
        {
            "uri": "data:application/octet-stream;base64,",
            "byteLength": 89360
        }
    ],
    "bufferViews": [
        { "buffer": 0, "byteOffset": 0, "byteLength": 5256, "target": 34963 },
        {
            "buffer": 0,
            "byteOffset": 5260,
            "byteLength": 84096,
            "byteStride": 32,
            "target": 34962
        }
    ],
    "images": [
        {
            "uri": "data:image/png;base64,"
        }
    ],
    "materials": [
        {
            "name": "pine_tree_red_mat",
            "pbrMetallicRoughness": {
                "baseColorFactor": [1, 1, 1, 1],
                "baseColorTexture": { "index": 0, "texCoord": 0 },
                "metallicFactor": 0,
                "roughnessFactor": 1
            },
            "emissiveFactor": [0, 0, 0],
            "alphaMode": "OPAQUE",
            "doubleSided": true
        }
    ],
    "meshes": [
        {
            "primitives": [
                {
                    "attributes": { "POSITION": 1, "NORMAL": 2, "TEXCOORD_0": 3 },
                    "indices": 0,
                    "material": 0,
                    "mode": 4
                }
            ]
        }
    ],
    "nodes": [
        { "mesh": 0, "name": "tree_pine_SC_04_pine_tree_red_mat_0" },
        { "children": [0], "name": "tree_pine_SC_04" },
        { "children": [1], "name": "RootNode" },
        {
            "children": [2],
            "matrix": [1, 0, 0, 0, 0, 0, 1, 0, 0, -1, 0, 0, 0, 0, 0, 1],
            "name": "2779ebe29bed4690a1986fabe083d5fb.fbx"
        },
        {
            "children": [3],
            "matrix": [
                1, 0, 0, 0, 0, 2.220446049250313e-16, -1, 0, 0, 1,
                2.220446049250313e-16, 0, 0, 0, 0, 1
            ],
            "name": "Sketchfab_model"
        }
    ],
    "samplers": [
        { "magFilter": 9729, "minFilter": 9987, "wrapS": 10497, "wrapT": 10497 }
    ],
    "scene": 0,
    "scenes": [{ "nodes": [4] }],
    "textures": [{ "sampler": 0, "source": 0, "name": "" }]
}
